<?xml version="1.0" standalone="no"?>
<!DOCTYPE svg PUBLIC "-//W3C//DTD SVG 20010904//EN"
 "http://www.w3.org/TR/2001/REC-SVG-20010904/DTD/svg10.dtd">
<svg version="1.0" xmlns="http://www.w3.org/2000/svg"
 width="1920.000000pt" height="960.000000pt" viewBox="0 0 1920.000000 960.000000"
 preserveAspectRatio="xMidYMid meet">

<g transform="translate(0.000000,960.000000) scale(0.100000,-0.100000)"
fill="#ffffff" stroke="none">
<path d="M4598 7029 c-522 -35 -1013 -254 -1396 -623 -701 -676 -884 -1730
-450 -2600 402 -806 1250 -1295 2142 -1235 553 37 1053 263 1441 653 90 90
246 278 245 294 -1 8 -401 287 -411 287 -3 0 -34 -35 -68 -78 -354 -446 -898
-684 -1472 -645 -693 46 -1296 518 -1515 1185 -62 190 -79 302 -79 533 0 231
17 344 79 533 219 668 821 1139 1515 1185 574 39 1118 -199 1472 -645 34 -43
65 -78 68 -78 10 0 410 279 411 287 0 17 -155 204 -245 294 -328 329 -755 551
-1211 629 -80 13 -355 37 -394 33 -8 0 -68 -4 -132 -9z"/>
<path d="M4980 6125 c-106 -30 -174 -86 -227 -188 -25 -46 -28 -63 -28 -147 0
-82 4 -103 26 -151 33 -70 91 -130 161 -165 75 -39 199 -45 280 -14 154 58
249 223 221 386 -35 200 -240 333 -433 279z"/>
<path d="M3791 5741 c-29 -11 -60 -26 -70 -33 -50 -37 -106 -99 -129 -143 -24
-44 -27 -61 -27 -150 0 -87 3 -107 26 -156 113 -241 450 -267 601 -48 158 229
7 533 -272 546 -57 3 -88 -1 -129 -16z"/>
<path d="M7406 5609 c-291 -40 -526 -199 -641 -433 -66 -133 -87 -224 -87
-376 0 -94 5 -145 21 -205 61 -235 217 -424 435 -525 195 -91 430 -111 651
-55 127 32 330 154 378 228 l16 25 -116 107 -116 106 -46 -44 c-102 -99 -206
-140 -356 -140 -149 0 -246 37 -347 131 -105 97 -151 211 -151 372 0 161 46
275 151 372 101 94 198 131 347 131 146 0 237 -35 357 -136 l47 -39 33 27 c17
15 70 63 117 106 l85 79 -29 31 c-73 76 -198 156 -306 195 -119 42 -314 61
-443 43z"/>
<path d="M8520 4800 l0 -790 180 0 180 0 0 790 0 790 -180 0 -180 0 0 -790z"/>
<path d="M9350 4800 l0 -790 180 0 180 0 0 476 c0 268 4 473 9 470 5 -3 129
-153 277 -333 148 -181 322 -392 387 -470 l118 -143 149 0 150 0 0 790 0 790
-180 0 -180 0 0 -476 c0 -380 -3 -474 -12 -466 -7 6 -184 220 -393 476 l-380
465 -152 0 -153 1 0 -790z"/>
<path d="M11270 4800 l0 -790 610 0 610 0 0 145 0 145 -430 0 -430 0 0 185 0
185 365 0 365 0 0 140 0 140 -365 0 -365 0 0 175 0 175 415 0 415 0 0 145 0
145 -595 0 -595 0 0 -790z"/>
<path d="M12870 4800 l0 -790 170 0 170 0 0 455 c0 250 3 455 8 455 4 0 108
-166 232 -370 l225 -370 85 0 85 1 230 387 230 387 3 -473 2 -472 170 0 170 0
0 790 0 790 -152 0 -153 -1 -289 -489 c-159 -270 -290 -490 -291 -490 -1 0
-134 220 -296 490 l-294 489 -152 1 -153 0 0 -790z"/>
<path d="M15310 4908 c-167 -376 -325 -731 -351 -790 l-48 -108 187 0 187 0
70 170 69 170 367 0 367 0 43 -102 c23 -57 55 -132 70 -168 l27 -65 192 -3
c109 -1 190 1 188 6 -1 5 -160 361 -352 791 l-350 781 -181 0 -181 0 -304
-682z m611 15 c61 -147 113 -274 116 -280 4 -10 -48 -13 -241 -13 -135 0 -246
4 -246 8 0 9 227 559 237 576 8 13 13 2 134 -291z"/>
<path d="M5690 5137 c-147 -41 -250 -181 -250 -337 0 -136 76 -257 199 -317
49 -24 68 -28 146 -28 78 0 98 4 150 28 265 124 266 512 1 633 -70 32 -176 41
-246 21z"/>
<path d="M4704 4920 c-30 -12 -71 -64 -79 -100 -5 -21 0 -43 15 -74 45 -94
167 -101 220 -13 64 104 -44 233 -156 187z"/>
<path d="M3801 4526 c-54 -18 -140 -76 -168 -114 -58 -78 -68 -112 -68 -222 0
-94 3 -110 26 -155 126 -238 452 -262 601 -44 158 229 7 534 -270 546 -48 2
-93 -3 -121 -11z"/>
<path d="M4970 4151 c-93 -29 -177 -101 -219 -190 -22 -48 -26 -69 -26 -151 0
-84 3 -101 28 -148 58 -110 139 -171 259 -193 249 -46 465 196 392 441 -46
154 -177 251 -337 249 -40 0 -83 -4 -97 -8z"/>
<path d="M7290 3091 c0 -193 -1 -354 -2 -358 -2 -4 17 -8 42 -8 l45 0 5 259 5
260 130 -217 c107 -179 134 -217 152 -217 18 0 45 38 150 216 l128 215 3 -255
c3 -282 -2 -266 70 -258 l32 4 0 354 0 354 -44 0 -44 0 -143 -245 c-78 -135
-147 -244 -151 -243 -5 2 -73 111 -151 243 l-143 240 -42 3 -42 3 0 -350z"/>
<path d="M8490 3202 c0 -182 4 -250 15 -289 35 -119 124 -184 261 -191 115 -6
182 15 243 76 77 77 83 106 89 395 l4 247 -50 0 -50 0 -4 -242 c-4 -259 -8
-280 -56 -332 -37 -39 -81 -56 -150 -56 -80 0 -139 31 -172 90 -24 44 -25 50
-28 293 l-3 247 -50 0 -49 0 0 -238z"/>
<path d="M9530 3085 l0 -355 250 0 250 0 0 40 0 40 -195 0 -195 0 0 315 0 315
-55 0 -55 0 0 -355z"/>
<path d="M10200 3400 l0 -39 123 -3 122 -3 5 -315 c4 -244 8 -315 18 -314 6 1
28 2 47 3 l35 1 0 315 0 315 125 0 125 0 0 40 0 40 -300 0 -300 0 0 -40z"/>
<path d="M11130 3085 l1 -355 54 0 55 0 0 355 0 355 -55 0 -55 0 0 -355z"/>
<path d="M11680 3087 c0 -195 2 -356 4 -358 3 -2 25 -3 50 -1 l46 4 0 257 0
256 131 -217 c107 -179 134 -218 152 -218 18 0 46 40 152 218 l130 217 3 -257
2 -256 46 -4 c25 -2 47 -1 50 1 2 2 4 164 4 358 l0 354 -47 -3 -47 -3 -141
-239 c-77 -132 -144 -241 -150 -242 -5 -2 -75 107 -154 241 l-144 245 -43 0
-44 0 0 -353z"/>
<path d="M12890 3085 c0 -195 3 -355 8 -355 4 0 121 -1 260 -3 l252 -2 0 42 0
43 -207 2 -208 3 -3 118 -3 117 181 0 180 0 0 40 0 40 -180 0 -180 0 0 115 0
115 205 0 205 0 0 40 0 40 -255 0 -255 0 0 -355z"/>
<path d="M13802 3085 l3 -357 195 2 c140 0 210 5 245 15 159 48 247 169 248
340 0 110 -28 182 -99 252 -89 86 -129 97 -382 101 l-213 3 3 -356z m410 255
c60 -18 120 -70 151 -129 57 -115 26 -265 -71 -338 -59 -45 -97 -54 -249 -60
l-133 -6 0 278 0 278 133 -6 c72 -3 149 -10 169 -17z"/>
<path d="M14882 3084 l3 -357 48 -1 47 -1 0 358 0 357 -50 0 -50 0 2 -356z"/>
<path d="M15626 3408 c-7 -18 -71 -159 -141 -313 -70 -154 -135 -299 -146
-322 l-18 -43 52 0 53 0 34 81 c19 44 42 85 52 90 9 5 96 9 193 9 l176 0 41
-90 41 -90 53 0 53 0 -33 73 c-18 39 -90 199 -161 355 l-128 282 -53 0 c-51 0
-54 -2 -68 -32z m150 -256 c37 -84 65 -155 62 -157 -3 -3 -71 -4 -151 -3
l-146 3 53 120 c101 230 96 221 106 205 5 -8 40 -84 76 -168z"/>
</g>
</svg>
